M48
;Layer_Color=9474304
;FILE_FORMAT=4:4
METRIC,LZ
;TYPE=PLATED
T01F00S00C0.3000
T03F00S00C0.7112
T04F00S00C0.8000
T05F00S00C1.0000
T06F00S00C1.4000
T07F00S00C2.0000
;TYPE=NON_PLATED
T08F00S00C0.6000
%
T01
X0080264Y0040767
X0079502Y0044196
X0085471Y0047244
X0084836Y0049276
X0086487Y0049784
X0089904Y0048895
X0091313Y0048768
X0088151Y0052959
X0084801Y0055704
X0084582Y0057912
Y0062484
X0081534Y0055245
X0088773Y0043688
X0093345Y0042037
X0100838Y0042926
X0101219Y0040005
X0101981Y0053213
X01016Y0056261
X0102997Y0061341
X0105804Y0061976
X01044299Y00646537
X01043655Y00654511
X01016754Y00662857
X0097777Y0065786
Y00635
X0102145Y007112
X0110363Y0070612
X0111255Y00697604
X0112422Y00702627
X0113411Y0069789
X0113448Y0070739
X01143Y0069088
X0112903Y006858
X01127558Y00675842
X01132721Y00669732
X01132934Y00661926
X0113073Y0064643
X0114033
X0115583
X0115443Y0067945
X0116038Y0060706
X0115824Y0059182
X011176Y0054058
X011303Y007493
X0108077Y0076708
X0066294Y0072644
X0068072Y0059563
X0066294Y0056642
X0068834Y0055118
X0070231Y0055245
X00755238Y00487268
T03
X0086741Y0052959
T04
X0068961Y0042323
Y0044323
Y0046323
T05
X0090551Y00381
Y004064
Y004318
Y004572
Y004826
Y00508
X0092583Y0067858
Y0070358
X0072771Y004826
Y004572
Y004318
Y004064
T06
X0068961Y0040173
Y0048473
T07
X00624547Y00326415
X0117094Y0033147
X0115905Y0075538
X00628357Y00754405
T08
X0112957Y0037365
Y0043145
X0112903Y0048768
Y0054548
M30
