G04*
G04 #@! TF.GenerationSoftware,Altium Limited,Altium Designer,24.1.2 (44)*
G04*
G04 Layer_Color=12632256*
%FSLAX44Y44*%
%MOMM*%
G71*
G04*
G04 #@! TF.SameCoordinates,B6623534-B7C4-405B-B2C8-BE74633E4C70*
G04*
G04*
G04 #@! TF.FilePolarity,Positive*
G04*
G01*
G75*
%ADD60C,2.0000*%
%ADD66C,1.5500*%
%ADD67R,1.5500X1.5500*%
%ADD73C,2.6000*%
%ADD74O,1.7000X0.9000*%
%ADD75O,2.0000X0.9000*%
%ADD76C,0.6000*%
%ADD77C,1.3080*%
%ADD78C,2.1000*%
D60*
X905510Y381000D02*
D03*
Y406400D02*
D03*
Y431800D02*
D03*
Y457200D02*
D03*
Y482600D02*
D03*
Y508000D02*
D03*
X727710Y406400D02*
D03*
Y431800D02*
D03*
Y457200D02*
D03*
Y482600D02*
D03*
D66*
X925830Y678580D02*
D03*
D67*
Y703580D02*
D03*
D73*
X628357Y754405D02*
D03*
X624547Y326415D02*
D03*
X1170940Y331470D02*
D03*
X1159050Y755380D02*
D03*
D74*
X1165830Y559830D02*
D03*
Y473330D02*
D03*
X1166370Y359300D02*
D03*
Y445800D02*
D03*
D75*
X1124130Y559830D02*
D03*
Y473330D02*
D03*
X1124670Y359300D02*
D03*
Y445800D02*
D03*
D76*
X1129030Y545480D02*
D03*
Y487680D02*
D03*
X1129570Y373650D02*
D03*
Y431450D02*
D03*
D77*
X689610Y423230D02*
D03*
Y463230D02*
D03*
Y443230D02*
D03*
D78*
Y484730D02*
D03*
Y401730D02*
D03*
M02*
