G04*
G04 #@! TF.GenerationSoftware,Altium Limited,Altium Designer,24.1.2 (44)*
G04*
G04 Layer_Color=32896*
%FSLAX44Y44*%
%MOMM*%
G71*
G04*
G04 #@! TF.SameCoordinates,B6623534-B7C4-405B-B2C8-BE74633E4C70*
G04*
G04*
G04 #@! TF.FilePolarity,Positive*
G04*
G01*
G75*
%ADD10C,0.2000*%
%ADD12C,0.2500*%
%ADD13C,0.1270*%
D10*
X1002053Y565155D02*
G03*
X1002053Y565155I-1000J0D01*
G01*
X1061770Y739120D02*
G03*
X1061770Y739120I-1000J0D01*
G01*
X886550Y473650D02*
G03*
X886550Y473650I-1000J0D01*
G01*
X842100Y472380D02*
G03*
X842100Y472380I-1000J0D01*
G01*
X902330Y728080D02*
X959830D01*
Y654080D02*
Y728080D01*
X902330Y654080D02*
X959830D01*
X902330D02*
Y728080D01*
D12*
X927080Y734830D02*
G03*
X927080Y734830I-1250J0D01*
G01*
D13*
X637240Y728940D02*
X830340D01*
Y548940D02*
Y728940D01*
X637240Y548940D02*
X830340D01*
X637240D02*
Y728940D01*
X575340D02*
X637240D01*
X575340Y548940D02*
Y728940D01*
Y548940D02*
X637240D01*
X1018053Y547030D02*
X1062053D01*
X1018053Y583280D02*
X1062053D01*
X1018053Y547030D02*
Y551355D01*
Y578955D02*
Y583280D01*
X1062053Y547030D02*
Y551355D01*
Y578955D02*
Y583280D01*
X1053870Y662220D02*
Y716020D01*
X1107670Y662220D02*
Y716020D01*
X1053870D02*
X1055670D01*
X1053870Y662220D02*
X1055670D01*
X1105870D02*
X1107670D01*
X1105870Y716020D02*
X1107670D01*
X1027900Y715200D02*
X1029500D01*
X1027900Y707200D02*
X1029500D01*
X922550Y457050D02*
Y466450D01*
X893550Y457050D02*
Y466450D01*
Y457050D02*
X901850D01*
X914250D02*
X922550D01*
X878100Y455780D02*
Y465180D01*
X849100Y455780D02*
Y465180D01*
Y455780D02*
X857400D01*
X869800D02*
X878100D01*
M02*
