G04*
G04 #@! TF.GenerationSoftware,Altium Limited,Altium Designer,24.1.2 (44)*
G04*
G04 Layer_Color=32896*
%FSLAX44Y44*%
%MOMM*%
G71*
G04*
G04 #@! TF.SameCoordinates,B6623534-B7C4-405B-B2C8-BE74633E4C70*
G04*
G04*
G04 #@! TF.FilePolarity,Positive*
G04*
G01*
G75*
%ADD10C,0.2000*%
G36*
X929499Y691071D02*
X929656Y691043D01*
X929795Y691025D01*
X929924Y690988D01*
X930035Y690951D01*
X930146Y690914D01*
X930239Y690877D01*
X930322Y690831D01*
X930396Y690794D01*
X930461Y690757D01*
X930507Y690720D01*
X930544Y690692D01*
X930581Y690673D01*
X930590Y690664D01*
X930599Y690655D01*
X930683Y690562D01*
X930757Y690470D01*
X930821Y690368D01*
X930877Y690257D01*
X930960Y690045D01*
X931015Y689841D01*
X931052Y689647D01*
X931062Y689573D01*
X931071Y689499D01*
X931080Y689444D01*
Y689361D01*
X931071Y689157D01*
X931043Y688972D01*
X931006Y688806D01*
X930960Y688658D01*
X930923Y688538D01*
X930886Y688454D01*
X930858Y688399D01*
X930849Y688380D01*
X930757Y688232D01*
X930646Y688103D01*
X930535Y688001D01*
X930433Y687909D01*
X930331Y687844D01*
X930257Y687798D01*
X930202Y687770D01*
X930192Y687761D01*
X930183D01*
X929998Y687696D01*
X929804Y687641D01*
X929592Y687604D01*
X929388Y687585D01*
X929212Y687567D01*
X929138D01*
X929065Y687558D01*
X929009D01*
X928972D01*
X928944D01*
X928935D01*
X924571D01*
Y688408D01*
X928981D01*
X929175D01*
X929342Y688427D01*
X929481Y688436D01*
X929592Y688454D01*
X929675Y688473D01*
X929740Y688482D01*
X929777Y688501D01*
X929786D01*
X929878Y688538D01*
X929952Y688584D01*
X930017Y688639D01*
X930082Y688686D01*
X930119Y688741D01*
X930155Y688778D01*
X930174Y688806D01*
X930183Y688815D01*
X930229Y688907D01*
X930266Y689000D01*
X930285Y689092D01*
X930303Y689176D01*
X930313Y689259D01*
X930322Y689314D01*
Y689370D01*
X930313Y689518D01*
X930276Y689656D01*
X930239Y689767D01*
X930183Y689869D01*
X930137Y689943D01*
X930091Y689998D01*
X930063Y690035D01*
X930054Y690045D01*
X929998Y690091D01*
X929934Y690128D01*
X929786Y690183D01*
X929619Y690239D01*
X929453Y690266D01*
X929296Y690294D01*
X929231D01*
X929175Y690303D01*
X929120Y690313D01*
X929083D01*
X929065D01*
X929055D01*
X929166Y691080D01*
X929342D01*
X929499Y691071D01*
D02*
G37*
G36*
X926855Y685755D02*
X926790Y685616D01*
X926725Y685477D01*
X926661Y685348D01*
X926605Y685237D01*
X926559Y685145D01*
X926522Y685089D01*
X926513Y685080D01*
Y685070D01*
X926411Y684904D01*
X926309Y684756D01*
X926217Y684627D01*
X926134Y684525D01*
X926069Y684433D01*
X926013Y684377D01*
X925976Y684331D01*
X925967Y684322D01*
X930969D01*
Y683536D01*
X924544D01*
Y684044D01*
X924701Y684137D01*
X924849Y684238D01*
X924996Y684359D01*
X925126Y684470D01*
X925237Y684581D01*
X925329Y684664D01*
X925357Y684701D01*
X925385Y684728D01*
X925394Y684738D01*
X925403Y684747D01*
X925561Y684941D01*
X925708Y685135D01*
X925838Y685320D01*
X925940Y685505D01*
X926032Y685662D01*
X926069Y685727D01*
X926097Y685782D01*
X926124Y685829D01*
X926134Y685866D01*
X926152Y685884D01*
Y685893D01*
X926910D01*
X926855Y685755D01*
D02*
G37*
D10*
X901330Y729080D02*
X960830D01*
Y653080D02*
Y729080D01*
X901330Y653080D02*
X960830D01*
X901330D02*
Y729080D01*
M02*
