G04*
G04 #@! TF.GenerationSoftware,Altium Limited,Altium Designer,24.1.2 (44)*
G04*
G04 Layer_Color=255*
%FSLAX44Y44*%
%MOMM*%
G71*
G04*
G04 #@! TF.SameCoordinates,B6623534-B7C4-405B-B2C8-BE74633E4C70*
G04*
G04*
G04 #@! TF.FilePolarity,Positive*
G04*
G01*
G75*
%ADD21R,0.6500X0.9000*%
%ADD25R,0.9200X0.9700*%
%ADD26R,0.9700X0.9200*%
G04:AMPARAMS|DCode=27|XSize=2.29mm|YSize=2.12mm|CornerRadius=0.265mm|HoleSize=0mm|Usage=FLASHONLY|Rotation=90.000|XOffset=0mm|YOffset=0mm|HoleType=Round|Shape=RoundedRectangle|*
%AMROUNDEDRECTD27*
21,1,2.2900,1.5900,0,0,90.0*
21,1,1.7600,2.1200,0,0,90.0*
1,1,0.5300,0.7950,0.8800*
1,1,0.5300,0.7950,-0.8800*
1,1,0.5300,-0.7950,-0.8800*
1,1,0.5300,-0.7950,0.8800*
%
%ADD27ROUNDEDRECTD27*%
%ADD60C,2.0000*%
%ADD66C,1.5500*%
%ADD67R,1.5500X1.5500*%
%ADD73C,2.6000*%
%ADD74O,1.7000X0.9000*%
%ADD75O,2.0000X0.9000*%
%ADD76C,0.6000*%
%ADD77C,1.3080*%
%ADD78C,2.1000*%
%ADD80R,0.9000X1.5000*%
%ADD81R,1.5000X0.9000*%
%ADD82R,0.9000X0.9000*%
G04:AMPARAMS|DCode=83|XSize=1.61mm|YSize=0.58mm|CornerRadius=0.145mm|HoleSize=0mm|Usage=FLASHONLY|Rotation=270.000|XOffset=0mm|YOffset=0mm|HoleType=Round|Shape=RoundedRectangle|*
%AMROUNDEDRECTD83*
21,1,1.6100,0.2900,0,0,270.0*
21,1,1.3200,0.5800,0,0,270.0*
1,1,0.2900,-0.1450,-0.6600*
1,1,0.2900,-0.1450,0.6600*
1,1,0.2900,0.1450,0.6600*
1,1,0.2900,0.1450,-0.6600*
%
%ADD83ROUNDEDRECTD83*%
%ADD84R,0.6000X0.8000*%
D21*
X1035950Y711200D02*
D03*
X1021450D02*
D03*
D25*
X977770Y635000D02*
D03*
X993270D02*
D03*
Y657860D02*
D03*
X977770D02*
D03*
X1093600Y618490D02*
D03*
X1078100D02*
D03*
X1058040D02*
D03*
X1042540D02*
D03*
X1139060Y679450D02*
D03*
X1154560D02*
D03*
D26*
X1017270Y663070D02*
D03*
Y647570D02*
D03*
X1155700Y663070D02*
D03*
Y647570D02*
D03*
D27*
X1061653Y565155D02*
D03*
X1018453D02*
D03*
D60*
X905510Y381000D02*
D03*
Y406400D02*
D03*
Y431800D02*
D03*
Y457200D02*
D03*
Y482600D02*
D03*
Y508000D02*
D03*
X727710Y406400D02*
D03*
Y431800D02*
D03*
Y457200D02*
D03*
Y482600D02*
D03*
D66*
X925830Y678580D02*
D03*
D67*
Y703580D02*
D03*
D73*
X628357Y754405D02*
D03*
X624547Y326415D02*
D03*
X1170940Y331470D02*
D03*
X1159050Y755380D02*
D03*
D74*
X1165830Y559830D02*
D03*
Y473330D02*
D03*
X1166370Y359300D02*
D03*
Y445800D02*
D03*
D75*
X1124130Y559830D02*
D03*
Y473330D02*
D03*
X1124670Y359300D02*
D03*
Y445800D02*
D03*
D76*
X1129030Y545480D02*
D03*
Y487680D02*
D03*
X1129570Y373650D02*
D03*
Y431450D02*
D03*
D77*
X689610Y423230D02*
D03*
Y463230D02*
D03*
Y443230D02*
D03*
D78*
Y484730D02*
D03*
Y401730D02*
D03*
D80*
X650240Y726440D02*
D03*
X662940D02*
D03*
X675640D02*
D03*
X688340D02*
D03*
X701040D02*
D03*
X713740D02*
D03*
X726440D02*
D03*
X739140D02*
D03*
X751840D02*
D03*
X764540D02*
D03*
X777240D02*
D03*
X789940D02*
D03*
X802640D02*
D03*
X815340D02*
D03*
Y551440D02*
D03*
X802640D02*
D03*
X789940D02*
D03*
X777240D02*
D03*
X764540D02*
D03*
X751840D02*
D03*
X739140D02*
D03*
X726440D02*
D03*
X713740D02*
D03*
X701040D02*
D03*
X688340D02*
D03*
X675640D02*
D03*
X662940D02*
D03*
X650240D02*
D03*
D81*
X827840Y581790D02*
D03*
Y594490D02*
D03*
Y607190D02*
D03*
Y619890D02*
D03*
Y632590D02*
D03*
Y645290D02*
D03*
Y657990D02*
D03*
Y670690D02*
D03*
Y683390D02*
D03*
Y696090D02*
D03*
D82*
X727440Y653940D02*
D03*
Y639940D02*
D03*
X741440D02*
D03*
Y653940D02*
D03*
Y667940D02*
D03*
X727440D02*
D03*
X713440D02*
D03*
Y653940D02*
D03*
Y639940D02*
D03*
D83*
X1061720Y725170D02*
D03*
X1074420D02*
D03*
X1087120D02*
D03*
X1099820D02*
D03*
Y653070D02*
D03*
X1087120D02*
D03*
X1074420D02*
D03*
X1061720D02*
D03*
D84*
X908050Y453450D02*
D03*
X898550Y473650D02*
D03*
X917550D02*
D03*
X863600Y452180D02*
D03*
X854100Y472380D02*
D03*
X873100D02*
D03*
M02*
