G04*
G04 #@! TF.GenerationSoftware,Altium Limited,Altium Designer,24.1.2 (44)*
G04*
G04 Layer_Color=16711935*
%FSLAX44Y44*%
%MOMM*%
G71*
G04*
G04 #@! TF.SameCoordinates,B6623534-B7C4-405B-B2C8-BE74633E4C70*
G04*
G04*
G04 #@! TF.FilePolarity,Positive*
G04*
G01*
G75*
%ADD10C,0.2000*%
%ADD13C,0.1270*%
%ADD14C,0.1000*%
%ADD15C,0.1692*%
%ADD90C,0.1269*%
D10*
X770620Y521100D02*
G03*
X770620Y521100I-1000J0D01*
G01*
X995040Y420370D02*
G03*
X995040Y420370I-1000J0D01*
G01*
X871680Y601040D02*
G03*
X871680Y601040I-1000J0D01*
G01*
X1002053Y565155D02*
G03*
X1002053Y565155I-1000J0D01*
G01*
X990700Y429260D02*
G03*
X990700Y429260I-1000J0D01*
G01*
X1106830Y484580D02*
G03*
X1106830Y484580I-1000J0D01*
G01*
X710930Y693690D02*
G03*
X710930Y693690I-1000J0D01*
G01*
X745220Y685430D02*
G03*
X745220Y685430I-1000J0D01*
G01*
X779780Y595510D02*
G03*
X779780Y595510I-1000J0D01*
G01*
X1061770Y739120D02*
G03*
X1061770Y739120I-1000J0D01*
G01*
X1095130Y716550D02*
G03*
X1095130Y716550I-1000J0D01*
G01*
X1107370Y370550D02*
G03*
X1107370Y370550I-1000J0D01*
G01*
X959310Y720420D02*
G03*
X959310Y720420I-1000J0D01*
G01*
X869140Y658190D02*
G03*
X869140Y658190I-1000J0D01*
G01*
X886550Y473650D02*
G03*
X886550Y473650I-1000J0D01*
G01*
X842100Y472380D02*
G03*
X842100Y472380I-1000J0D01*
G01*
D13*
X816620Y413550D02*
Y513550D01*
X777620Y413550D02*
Y513550D01*
Y413550D02*
X816620D01*
X777620Y513550D02*
X816620D01*
X933040Y402245D02*
X977040D01*
X933040D02*
Y438495D01*
X977040D01*
Y402245D02*
Y438495D01*
X881180Y559040D02*
Y589040D01*
X856180Y559040D02*
Y589040D01*
Y559040D02*
X881180D01*
X856180Y589040D02*
X881180D01*
X725260Y502030D02*
X742860D01*
X725260Y511430D02*
X742860D01*
Y502030D02*
Y511430D01*
X725260Y502030D02*
Y511430D01*
X1018053Y583280D02*
X1062053D01*
X1018053Y547030D02*
X1062053D01*
X1018053D02*
Y583280D01*
X1062053Y547030D02*
Y583280D01*
X883030Y421730D02*
Y439330D01*
X892430Y421730D02*
Y439330D01*
X883030Y421730D02*
X892430D01*
X883030Y439330D02*
X892430D01*
X806830Y382360D02*
X816230D01*
X806830Y399960D02*
X816230D01*
X806830Y382360D02*
Y399960D01*
X816230Y382360D02*
Y399960D01*
X1006700Y411135D02*
Y447385D01*
Y411135D02*
X1050700D01*
Y447385D01*
X1006700D02*
X1050700D01*
X1013080Y357950D02*
X1029080D01*
X1013080Y365950D02*
X1029080D01*
Y357950D02*
Y365950D01*
X1013080Y357950D02*
Y365950D01*
X1011810Y377000D02*
X1027810D01*
X1011810Y385000D02*
X1027810D01*
Y377000D02*
Y385000D01*
X1011810Y377000D02*
Y385000D01*
Y396050D02*
X1027810D01*
X1011810Y404050D02*
X1027810D01*
Y396050D02*
Y404050D01*
X1011810Y396050D02*
Y404050D01*
X1186930Y461580D02*
Y606580D01*
X1118330Y471880D02*
X1191830D01*
X1118330D02*
Y561280D01*
X1191830D01*
Y471880D02*
Y561280D01*
X1020700Y492570D02*
X1036700D01*
X1020700Y500570D02*
X1036700D01*
Y492570D02*
Y500570D01*
X1020700Y492570D02*
Y500570D01*
X715380Y629590D02*
Y668590D01*
X666380Y629590D02*
X715380D01*
X666380D02*
Y668590D01*
X715380D01*
X679440Y699960D02*
X695440D01*
X679440Y691960D02*
X695440D01*
X679440D02*
Y699960D01*
X695440Y691960D02*
Y699960D01*
X762345Y624430D02*
Y668430D01*
X726095Y624430D02*
X762345D01*
X726095D02*
Y668430D01*
X762345D01*
X736490Y551960D02*
X754490D01*
X736490Y585960D02*
X754490D01*
X736490Y551960D02*
Y585960D01*
X754490Y551960D02*
Y585960D01*
X697960Y586120D02*
X719360D01*
X697960Y572120D02*
X719360D01*
X697960D02*
Y586120D01*
X719360Y572120D02*
Y586120D01*
X994320Y630300D02*
Y639700D01*
X976720Y630300D02*
Y639700D01*
X994320D01*
X976720Y630300D02*
X994320D01*
X976720Y653160D02*
Y662560D01*
X994320Y653160D02*
Y662560D01*
X976720Y653160D02*
X994320D01*
X976720Y662560D02*
X994320D01*
X993520Y608140D02*
Y616140D01*
X977520Y608140D02*
Y616140D01*
Y608140D02*
X993520D01*
X977520Y616140D02*
X993520D01*
X1019430Y528130D02*
X1035430D01*
X1019430Y536130D02*
X1035430D01*
Y528130D02*
Y536130D01*
X1019430Y528130D02*
Y536130D01*
X1019800Y510350D02*
Y518350D01*
X1035800Y510350D02*
Y518350D01*
X1019800D02*
X1035800D01*
X1019800Y510350D02*
X1035800D01*
X803780Y611610D02*
Y627610D01*
X774780Y611610D02*
Y627610D01*
X803780D01*
X774780Y611610D02*
X803780D01*
X1053870Y662220D02*
Y716020D01*
X1107670Y662220D02*
Y716020D01*
X1053870D02*
X1107670D01*
X1053870Y662220D02*
X1107670D01*
X1033130Y706800D02*
X1103130D01*
X1033130Y636800D02*
X1103130D01*
Y706800D01*
X1033130Y636800D02*
Y706800D01*
X1192370Y357850D02*
Y447250D01*
X1118870D02*
X1192370D01*
X1118870Y357850D02*
Y447250D01*
Y357850D02*
X1192370D01*
X1187470Y347550D02*
Y492550D01*
X1021970Y646520D02*
Y664120D01*
X1012570Y646520D02*
Y664120D01*
Y646520D02*
X1021970D01*
X1012570Y664120D02*
X1021970D01*
X811420Y635780D02*
Y669780D01*
X829420Y635780D02*
Y669780D01*
X811420Y635780D02*
X829420D01*
X811420Y669780D02*
X829420D01*
X842790Y666640D02*
X876790D01*
X842790Y684640D02*
X876790D01*
Y666640D02*
Y684640D01*
X842790Y666640D02*
Y684640D01*
X813530Y564500D02*
Y578500D01*
X834930Y564500D02*
Y578500D01*
X813530D02*
X834930D01*
X813530Y564500D02*
X834930D01*
X1077050Y613790D02*
X1094650D01*
X1077050Y623190D02*
X1094650D01*
X1077050Y613790D02*
Y623190D01*
X1094650Y613790D02*
Y623190D01*
X781940Y660210D02*
X797940D01*
X781940Y668210D02*
X797940D01*
Y660210D02*
Y668210D01*
X781940Y660210D02*
Y668210D01*
Y687260D02*
X797940D01*
X781940Y679260D02*
X797940D01*
X781940D02*
Y687260D01*
X797940Y679260D02*
Y687260D01*
X651020Y587900D02*
X685020D01*
X651020Y605900D02*
X685020D01*
Y587900D02*
Y605900D01*
X651020Y587900D02*
Y605900D01*
X780560Y716390D02*
X814560D01*
X780560Y698390D02*
X814560D01*
X780560D02*
Y716390D01*
X814560Y698390D02*
Y716390D01*
X943810Y708420D02*
X968810D01*
X943810Y678420D02*
X968810D01*
X943810D02*
Y708420D01*
X968810Y678420D02*
Y708420D01*
X1020700Y715200D02*
X1036700D01*
X1020700Y707200D02*
X1036700D01*
Y715200D01*
X1020700Y707200D02*
Y715200D01*
X878640Y616190D02*
Y646190D01*
X853640Y616190D02*
Y646190D01*
Y616190D02*
X878640D01*
X853640Y646190D02*
X878640D01*
X1149730Y703390D02*
Y711390D01*
X1133730Y703390D02*
Y711390D01*
Y703390D02*
X1149730D01*
X1133730Y711390D02*
X1149730D01*
X864120Y495110D02*
X880120D01*
X864120Y503110D02*
X880120D01*
Y495110D02*
Y503110D01*
X864120Y495110D02*
Y503110D01*
X864490Y491680D02*
X880490D01*
X864490Y483680D02*
X880490D01*
X864490D02*
Y491680D01*
X880490Y483680D02*
Y491680D01*
X1133770Y591440D02*
Y607440D01*
X1125770Y591440D02*
Y607440D01*
X1133770D01*
X1125770Y591440D02*
X1133770D01*
X1142990Y595820D02*
X1158990D01*
X1142990Y587820D02*
X1158990D01*
X1142990D02*
Y595820D01*
X1158990Y587820D02*
Y595820D01*
X922550Y457050D02*
Y470050D01*
X893550D02*
X922550D01*
X893550Y457050D02*
Y470050D01*
Y457050D02*
X922550D01*
X878100Y455780D02*
Y468780D01*
X849100D02*
X878100D01*
X849100Y455780D02*
Y468780D01*
Y455780D02*
X878100D01*
X1041490Y613790D02*
X1059090D01*
X1041490Y623190D02*
X1059090D01*
X1041490Y613790D02*
Y623190D01*
X1059090Y613790D02*
Y623190D01*
X1139280Y641730D02*
X1156880D01*
X1139280Y651130D02*
X1156880D01*
Y641730D02*
Y651130D01*
X1139280Y641730D02*
Y651130D01*
X1138010Y674750D02*
X1155610D01*
X1138010Y684150D02*
X1155610D01*
Y674750D02*
Y684150D01*
X1138010Y674750D02*
Y684150D01*
X1025270Y596990D02*
Y614590D01*
X1034670Y596990D02*
Y614590D01*
X1025270Y596990D02*
X1034670D01*
X1025270Y614590D02*
X1034670D01*
X1143830Y611760D02*
X1161430D01*
X1143830Y602360D02*
X1161430D01*
X1143830D02*
Y611760D01*
X1161430Y602360D02*
Y611760D01*
X1062610Y602200D02*
Y619800D01*
X1053210Y602200D02*
Y619800D01*
X1062610D01*
X1053210Y602200D02*
X1062610D01*
X1090040Y589370D02*
Y606970D01*
X1099440Y589370D02*
Y606970D01*
X1090040Y589370D02*
X1099440D01*
X1090040Y606970D02*
X1099440D01*
X1132930Y623950D02*
X1150530D01*
X1132930Y633350D02*
X1150530D01*
Y623950D02*
Y633350D01*
X1132930Y623950D02*
Y633350D01*
X1160400Y646520D02*
Y664120D01*
X1151000Y646520D02*
Y664120D01*
Y646520D02*
X1160400D01*
X1151000Y664120D02*
X1160400D01*
X1063880Y744310D02*
Y761910D01*
X1054480Y744310D02*
Y761910D01*
X1063880D01*
X1054480Y744310D02*
X1063880D01*
X1138010Y684150D02*
X1155610D01*
X1138010Y674750D02*
X1155610D01*
Y684150D01*
X1138010Y674750D02*
Y684150D01*
X1083690Y740500D02*
X1093090D01*
X1083690Y758100D02*
X1093090D01*
X1083690Y740500D02*
Y758100D01*
X1093090Y740500D02*
Y758100D01*
X864960Y524890D02*
X882560D01*
X864960Y534290D02*
X882560D01*
Y524890D02*
Y534290D01*
X864960Y524890D02*
Y534290D01*
D14*
X870250Y352920D02*
Y398920D01*
X843750Y352920D02*
X870250D01*
X843750Y398920D02*
X870250D01*
X843750Y352920D02*
Y398920D01*
X688850Y748030D02*
X694250Y751430D01*
X688850Y748030D02*
X694250Y744530D01*
Y751430D01*
X676150Y740030D02*
X708150D01*
X676150Y756030D02*
X708150D01*
X676150Y740030D02*
Y756030D01*
X708150Y740030D02*
Y756030D01*
X1140900Y725580D02*
X1146300Y728980D01*
X1140900Y732480D02*
X1146300Y728980D01*
X1140900Y725580D02*
Y732480D01*
X1127000Y736980D02*
X1159000D01*
X1127000Y720980D02*
X1159000D01*
Y736980D01*
X1127000Y720980D02*
Y736980D01*
D15*
X1117000Y727917D02*
X1111583D01*
X1114292Y725209D02*
Y730626D01*
D90*
X1184830Y568580D02*
X1178736D01*
Y571627D01*
X1179752Y572643D01*
X1181783D01*
X1182799Y571627D01*
Y568580D01*
X1179752Y578737D02*
X1178736Y577721D01*
Y575690D01*
X1179752Y574674D01*
X1183814D01*
X1184830Y575690D01*
Y577721D01*
X1183814Y578737D01*
X1178736Y580768D02*
X1184830D01*
Y583815D01*
X1183814Y584831D01*
X1182799D01*
X1181783Y583815D01*
Y580768D01*
Y583815D01*
X1180767Y584831D01*
X1179752D01*
X1178736Y583815D01*
Y580768D01*
Y597019D02*
Y592956D01*
X1184830D01*
Y597019D01*
X1181783Y592956D02*
Y594987D01*
X1178736Y599050D02*
X1184830D01*
Y602097D01*
X1183814Y603113D01*
X1179752D01*
X1178736Y602097D01*
Y599050D01*
X1179752Y609207D02*
X1178736Y608191D01*
Y606160D01*
X1179752Y605144D01*
X1183814D01*
X1184830Y606160D01*
Y608191D01*
X1183814Y609207D01*
X1181783D01*
Y607175D01*
X1178736Y615301D02*
Y611238D01*
X1184830D01*
Y615301D01*
X1181783Y611238D02*
Y613270D01*
X1185370Y454550D02*
X1179276D01*
Y457597D01*
X1180292Y458613D01*
X1182323D01*
X1183339Y457597D01*
Y454550D01*
X1180292Y464707D02*
X1179276Y463691D01*
Y461660D01*
X1180292Y460644D01*
X1184354D01*
X1185370Y461660D01*
Y463691D01*
X1184354Y464707D01*
X1179276Y466738D02*
X1185370D01*
Y469785D01*
X1184354Y470801D01*
X1183339D01*
X1182323Y469785D01*
Y466738D01*
Y469785D01*
X1181307Y470801D01*
X1180292D01*
X1179276Y469785D01*
Y466738D01*
Y482989D02*
Y478926D01*
X1185370D01*
Y482989D01*
X1182323Y478926D02*
Y480957D01*
X1179276Y485020D02*
X1185370D01*
Y488067D01*
X1184354Y489083D01*
X1180292D01*
X1179276Y488067D01*
Y485020D01*
X1180292Y495177D02*
X1179276Y494161D01*
Y492130D01*
X1180292Y491114D01*
X1184354D01*
X1185370Y492130D01*
Y494161D01*
X1184354Y495177D01*
X1182323D01*
Y493145D01*
X1179276Y501271D02*
Y497208D01*
X1185370D01*
Y501271D01*
X1182323Y497208D02*
Y499240D01*
M02*
