G04*
G04 #@! TF.GenerationSoftware,Altium Limited,Altium Designer,24.1.2 (44)*
G04*
G04 Layer_Color=2752767*
%FSLAX44Y44*%
%MOMM*%
G71*
G04*
G04 #@! TF.SameCoordinates,B6623534-B7C4-405B-B2C8-BE74633E4C70*
G04*
G04*
G04 #@! TF.FilePolarity,Positive*
G04*
G01*
G75*
%ADD13C,0.1270*%
%ADD92C,0.1693*%
D13*
X900430Y375920D02*
Y386080D01*
X910590D01*
Y375920D01*
X900430D01*
Y401320D02*
Y411480D01*
X910590D01*
Y401320D01*
X900430D01*
Y426720D02*
Y436880D01*
X910590D01*
Y426720D01*
X900430D01*
Y452120D02*
Y462280D01*
X910590D01*
Y452120D01*
X900430D01*
Y477520D02*
Y487680D01*
X910590D01*
Y477520D01*
X900430D01*
Y502920D02*
Y513080D01*
X910590D01*
Y502920D01*
X900430D01*
X722630Y401320D02*
Y411480D01*
X732790D01*
Y401320D01*
X722630D01*
Y426720D02*
Y436880D01*
X732790D01*
Y426720D01*
X722630D01*
Y452120D02*
Y462280D01*
X732790D01*
Y452120D01*
X722630D01*
Y477520D02*
Y487680D01*
X732790D01*
Y477520D01*
X722630D01*
X623277Y749325D02*
Y759485D01*
X633437D01*
Y749325D01*
X623277D01*
X625309Y751357D02*
Y757453D01*
X631405D01*
Y751357D01*
X625309D01*
X619467Y321335D02*
Y331495D01*
X629627D01*
Y321335D01*
X619467D01*
X621499Y323367D02*
Y329463D01*
X627595D01*
Y323367D01*
X621499D01*
X1165830Y554750D02*
X1168370Y557290D01*
X1170910D01*
X1168370Y559830D01*
X1170910Y562370D01*
X1168370D01*
X1165830Y564910D01*
X1163290Y562370D01*
X1160750D01*
X1163290Y559830D01*
X1160750Y557290D01*
X1163290D01*
X1165830Y554750D01*
Y468250D02*
X1168370Y470790D01*
X1170910D01*
X1168370Y473330D01*
X1170910Y475870D01*
X1168370D01*
X1165830Y478410D01*
X1163290Y475870D01*
X1160750D01*
X1163290Y473330D01*
X1160750Y470790D01*
X1163290D01*
X1165830Y468250D01*
X1119050Y554750D02*
X1121590Y559830D01*
X1119050Y564910D01*
X1124130Y562370D01*
X1129210Y564910D01*
X1126670Y559830D01*
X1129210Y554750D01*
X1124130Y557290D01*
X1119050Y554750D01*
Y468250D02*
X1121590Y473330D01*
X1119050Y478410D01*
X1124130Y475870D01*
X1129210Y478410D01*
X1126670Y473330D01*
X1129210Y468250D01*
X1124130Y470790D01*
X1119050Y468250D01*
X1126490Y542940D02*
Y540400D01*
X1131570D01*
Y542940D01*
X1134110D01*
Y548020D01*
X1131570D01*
Y550560D01*
X1126490D01*
Y548020D01*
X1123950D01*
Y542940D01*
X1126490D01*
Y485140D02*
Y482600D01*
X1131570D01*
Y485140D01*
X1134110D01*
Y490220D01*
X1131570D01*
Y492760D01*
X1126490D01*
Y490220D01*
X1123950D01*
Y485140D01*
X1126490D01*
X1165860Y326390D02*
Y336550D01*
X1176020D01*
Y326390D01*
X1165860D01*
X1167892Y328422D02*
Y334518D01*
X1173988D01*
Y328422D01*
X1167892D01*
X1127030Y371110D02*
Y368570D01*
X1132110D01*
Y371110D01*
X1134650D01*
Y376190D01*
X1132110D01*
Y378730D01*
X1127030D01*
Y376190D01*
X1124490D01*
Y371110D01*
X1127030D01*
Y428910D02*
Y426370D01*
X1132110D01*
Y428910D01*
X1134650D01*
Y433990D01*
X1132110D01*
Y436530D01*
X1127030D01*
Y433990D01*
X1124490D01*
Y428910D01*
X1127030D01*
X1119590Y354220D02*
X1122130Y359300D01*
X1119590Y364380D01*
X1124670Y361840D01*
X1129750Y364380D01*
X1127210Y359300D01*
X1129750Y354220D01*
X1124670Y356760D01*
X1119590Y354220D01*
Y440720D02*
X1122130Y445800D01*
X1119590Y450880D01*
X1124670Y448340D01*
X1129750Y450880D01*
X1127210Y445800D01*
X1129750Y440720D01*
X1124670Y443260D01*
X1119590Y440720D01*
X1166370Y354220D02*
X1168910Y356760D01*
X1171450D01*
X1168910Y359300D01*
X1171450Y361840D01*
X1168910D01*
X1166370Y364380D01*
X1163830Y361840D01*
X1161290D01*
X1163830Y359300D01*
X1161290Y356760D01*
X1163830D01*
X1166370Y354220D01*
Y440720D02*
X1168910Y443260D01*
X1171450D01*
X1168910Y445800D01*
X1171450Y448340D01*
X1168910D01*
X1166370Y450880D01*
X1163830Y448340D01*
X1161290D01*
X1163830Y445800D01*
X1161290Y443260D01*
X1163830D01*
X1166370Y440720D01*
X1153970Y750300D02*
Y760460D01*
X1164130D01*
Y750300D01*
X1153970D01*
X1156002Y752332D02*
Y758428D01*
X1162098D01*
Y752332D01*
X1156002D01*
X920750Y673500D02*
Y683660D01*
X930910D01*
Y673500D01*
X920750D01*
Y698500D02*
Y708660D01*
X930910D01*
Y698500D01*
X920750D01*
X689610Y479650D02*
X684530Y489810D01*
X694690D01*
X689610Y479650D01*
Y396650D02*
X684530Y406810D01*
X694690D01*
X689610Y396650D01*
X1112520Y540580D02*
X1117600Y545660D01*
X1122680Y540580D01*
X1117600Y535500D01*
X1112520Y540580D01*
X1014730Y532130D02*
X1019810Y537210D01*
X1024890Y532130D01*
X1019810Y527050D01*
X1014730Y532130D01*
X1125650Y646430D02*
X1130730Y651510D01*
X1135810Y646430D01*
X1130730Y641350D01*
X1125650Y646430D01*
X1007110Y400050D02*
X1012190Y405130D01*
X1017270Y400050D01*
X1012190Y394970D01*
X1007110Y400050D01*
X789940Y441960D02*
X795020Y447040D01*
X800100Y441960D01*
X795020Y436880D01*
X789940Y441960D01*
X928370Y420370D02*
X933450Y425450D01*
X938530Y420370D01*
X933450Y415290D01*
X928370Y420370D01*
X842930Y557040D02*
X848010Y562120D01*
X853090Y557040D01*
X848010Y551960D01*
X842930Y557040D01*
X797560Y407670D02*
X802640Y412750D01*
X807720Y407670D01*
X802640Y402590D01*
X797560Y407670D01*
X882650Y436880D02*
X887730Y441960D01*
X892810Y436880D01*
X887730Y431800D01*
X882650Y436880D01*
X750158Y487268D02*
X755238Y492348D01*
X760318Y487268D01*
X755238Y482188D01*
X750158Y487268D01*
X1010920Y562610D02*
X1016000Y567690D01*
X1021080Y562610D01*
X1016000Y557530D01*
X1010920Y562610D01*
X908050Y487680D02*
X913130Y492760D01*
X918210Y487680D01*
X913130Y482600D01*
X908050Y487680D01*
X1003300Y429260D02*
X1008380Y434340D01*
X1013460Y429260D01*
X1008380Y424180D01*
X1003300Y429260D01*
X675640Y595630D02*
X680720Y600710D01*
X685800Y595630D01*
X680720Y590550D01*
X675640Y595630D01*
X657860Y726440D02*
X662940Y731520D01*
X668020Y726440D01*
X662940Y721360D01*
X657860Y726440D01*
X862330Y524510D02*
X864870D01*
X867410Y527050D01*
X869950Y524510D01*
X872490D01*
Y527050D01*
X869950Y529590D01*
X872490Y532130D01*
Y534670D01*
X869950D01*
X867410Y532130D01*
X864870Y534670D01*
X862330D01*
Y532130D01*
X864870Y529590D01*
X862330Y527050D01*
Y524510D01*
X1038575Y654511D02*
X1043655Y659592D01*
X1048735Y654511D01*
X1043655Y649432D01*
X1038575Y654511D01*
X1011674Y662857D02*
X1016754Y667936D01*
X1021834Y662857D01*
X1016754Y657776D01*
X1011674Y662857D01*
X972690Y657860D02*
X977770Y662940D01*
X982850Y657860D01*
X977770Y652780D01*
X972690Y657860D01*
Y635000D02*
X977770Y640080D01*
X982850Y635000D01*
X977770Y629920D01*
X972690Y635000D01*
X683260Y551180D02*
X688340Y556260D01*
X693420Y551180D01*
X688340Y546100D01*
X683260Y551180D01*
X697230Y552450D02*
X702310Y557530D01*
X707390Y552450D01*
X702310Y547370D01*
X697230Y552450D01*
X810260D02*
X815340Y557530D01*
X820420Y552450D01*
X815340Y547370D01*
X810260Y552450D01*
X1123950Y685800D02*
X1129030Y690880D01*
X1134110Y685800D01*
X1129030Y680720D01*
X1123950Y685800D01*
X1127641Y669732D02*
X1132721Y674811D01*
X1137801Y669732D01*
X1132721Y664651D01*
X1127641Y669732D01*
X1122478Y675842D02*
X1127558Y680922D01*
X1132638Y675842D01*
X1127558Y670762D01*
X1122478Y675842D01*
X1098550Y706120D02*
X1103630Y711200D01*
X1108710Y706120D01*
X1103630Y701040D01*
X1098550Y706120D01*
X1107470Y697604D02*
X1112550Y702684D01*
X1117630Y697604D01*
X1112550Y692524D01*
X1107470Y697604D01*
X1129030Y697890D02*
X1134110Y702970D01*
X1139190Y697890D01*
X1134110Y692810D01*
X1129030Y697890D01*
X1119140Y702627D02*
X1124220Y707707D01*
X1129300Y702627D01*
X1124220Y697547D01*
X1119140Y702627D01*
X1137920Y690880D02*
X1143000Y695960D01*
X1148080Y690880D01*
X1143000Y685800D01*
X1137920Y690880D01*
X1127854Y661926D02*
X1132934Y667006D01*
X1138014Y661926D01*
X1132934Y656846D01*
X1127854Y661926D01*
X1039219Y646537D02*
X1044299Y651618D01*
X1049379Y646537D01*
X1044299Y641458D01*
X1039219Y646537D01*
X893960Y488950D02*
X899040Y494030D01*
X904120Y488950D01*
X899040Y483870D01*
X893960Y488950D01*
X859790Y497840D02*
X864870Y502920D01*
X869950Y497840D01*
X864870Y492760D01*
X859790Y497840D01*
X843280Y492760D02*
X848360Y497840D01*
X853440Y492760D01*
X848360Y487680D01*
X843280Y492760D01*
X849630Y472440D02*
X854710Y477520D01*
X859790Y472440D01*
X854710Y467360D01*
X849630Y472440D01*
X840740Y579120D02*
X845820Y584200D01*
X850900Y579120D01*
X845820Y574040D01*
X840740Y579120D01*
Y624840D02*
X845820Y629920D01*
X850900Y624840D01*
X845820Y619760D01*
X840740Y624840D01*
X657860Y566420D02*
X662940Y571500D01*
X668020Y566420D01*
X662940Y561340D01*
X657860Y566420D01*
X1129400Y707390D02*
X1134480Y712470D01*
X1139560Y707390D01*
X1134480Y702310D01*
X1129400Y707390D01*
X1016370Y711200D02*
X1021450Y716280D01*
X1026530Y711200D01*
X1021450Y706120D01*
X1016370Y711200D01*
X1125220Y749300D02*
X1130300Y754380D01*
X1135380Y749300D01*
X1130300Y744220D01*
X1125220Y749300D01*
X1075690Y767080D02*
X1080770Y772160D01*
X1085850Y767080D01*
X1080770Y762000D01*
X1075690Y767080D01*
X1024890Y613410D02*
X1029970Y618490D01*
X1035050Y613410D01*
X1029970Y608330D01*
X1024890Y613410D01*
X1155300Y607060D02*
X1160380Y612140D01*
X1165460Y607060D01*
X1160380Y601980D01*
X1155300Y607060D01*
X1153160Y591820D02*
X1158240Y596900D01*
X1163320Y591820D01*
X1158240Y586740D01*
X1153160Y591820D01*
X1135250Y646430D02*
X1140330Y651510D01*
X1145410Y646430D01*
X1140330Y641350D01*
X1135250Y646430D01*
X876430Y529590D02*
X881510Y534670D01*
X886590Y529590D01*
X881510Y524510D01*
X876430Y529590D01*
X1150750Y646430D02*
X1155830Y651510D01*
X1160910Y646430D01*
X1155830Y641350D01*
X1150750Y646430D01*
X1149350Y679450D02*
X1154430Y684530D01*
X1159510Y679450D01*
X1154430Y674370D01*
X1149350Y679450D01*
X1052960Y619760D02*
X1058040Y624840D01*
X1063120Y619760D01*
X1058040Y614680D01*
X1052960Y619760D01*
D92*
X694690Y423230D02*
G03*
X694690Y423230I-5080J0D01*
G01*
Y463230D02*
G03*
X694690Y463230I-5080J0D01*
G01*
Y443230D02*
G03*
X694690Y443230I-5080J0D01*
G01*
M02*
