G04*
G04 #@! TF.GenerationSoftware,Altium Limited,Altium Designer,24.1.2 (44)*
G04*
G04 Layer_Color=255*
%FSLAX44Y44*%
%MOMM*%
G71*
G04*
G04 #@! TF.SameCoordinates,B6623534-B7C4-405B-B2C8-BE74633E4C70*
G04*
G04*
G04 #@! TF.FilePolarity,Positive*
G04*
G01*
G75*
%ADD16R,1.1400X0.6000*%
G04:AMPARAMS|DCode=17|XSize=1.31mm|YSize=0.62mm|CornerRadius=0.0775mm|HoleSize=0mm|Usage=FLASHONLY|Rotation=0.000|XOffset=0mm|YOffset=0mm|HoleType=Round|Shape=RoundedRectangle|*
%AMROUNDEDRECTD17*
21,1,1.3100,0.4650,0,0,0.0*
21,1,1.1550,0.6200,0,0,0.0*
1,1,0.1550,0.5775,-0.2325*
1,1,0.1550,-0.5775,-0.2325*
1,1,0.1550,-0.5775,0.2325*
1,1,0.1550,0.5775,0.2325*
%
%ADD17ROUNDEDRECTD17*%
G04:AMPARAMS|DCode=18|XSize=2.29mm|YSize=2.12mm|CornerRadius=0.265mm|HoleSize=0mm|Usage=FLASHONLY|Rotation=180.000|XOffset=0mm|YOffset=0mm|HoleType=Round|Shape=RoundedRectangle|*
%AMROUNDEDRECTD18*
21,1,2.2900,1.5900,0,0,180.0*
21,1,1.7600,2.1200,0,0,180.0*
1,1,0.5300,-0.8800,0.7950*
1,1,0.5300,0.8800,0.7950*
1,1,0.5300,0.8800,-0.7950*
1,1,0.5300,-0.8800,-0.7950*
%
%ADD18ROUNDEDRECTD18*%
%ADD19R,1.8000X0.6500*%
%ADD20R,1.8000X1.8000*%
%ADD21R,0.6500X0.9000*%
G04:AMPARAMS|DCode=22|XSize=0.2mm|YSize=0.84mm|CornerRadius=0.025mm|HoleSize=0mm|Usage=FLASHONLY|Rotation=270.000|XOffset=0mm|YOffset=0mm|HoleType=Round|Shape=RoundedRectangle|*
%AMROUNDEDRECTD22*
21,1,0.2000,0.7900,0,0,270.0*
21,1,0.1500,0.8400,0,0,270.0*
1,1,0.0500,-0.3950,-0.0750*
1,1,0.0500,-0.3950,0.0750*
1,1,0.0500,0.3950,0.0750*
1,1,0.0500,0.3950,-0.0750*
%
%ADD22ROUNDEDRECTD22*%
%ADD23R,1.1400X0.3000*%
%ADD24R,1.7000X0.8000*%
%ADD25R,0.9200X0.9700*%
%ADD26R,0.9700X0.9200*%
G04:AMPARAMS|DCode=27|XSize=2.29mm|YSize=2.12mm|CornerRadius=0.265mm|HoleSize=0mm|Usage=FLASHONLY|Rotation=90.000|XOffset=0mm|YOffset=0mm|HoleType=Round|Shape=RoundedRectangle|*
%AMROUNDEDRECTD27*
21,1,2.2900,1.5900,0,0,90.0*
21,1,1.7600,2.1200,0,0,90.0*
1,1,0.5300,0.7950,0.8800*
1,1,0.5300,0.7950,-0.8800*
1,1,0.5300,-0.7950,-0.8800*
1,1,0.5300,-0.7950,0.8800*
%
%ADD27ROUNDEDRECTD27*%
%ADD28R,1.4000X1.5000*%
G04:AMPARAMS|DCode=29|XSize=1.61mm|YSize=0.59mm|CornerRadius=0.0738mm|HoleSize=0mm|Usage=FLASHONLY|Rotation=270.000|XOffset=0mm|YOffset=0mm|HoleType=Round|Shape=RoundedRectangle|*
%AMROUNDEDRECTD29*
21,1,1.6100,0.4425,0,0,270.0*
21,1,1.4625,0.5900,0,0,270.0*
1,1,0.1475,-0.2213,-0.7313*
1,1,0.1475,-0.2213,0.7313*
1,1,0.1475,0.2213,0.7313*
1,1,0.1475,0.2213,-0.7313*
%
%ADD29ROUNDEDRECTD29*%
%ADD30R,1.8200X1.4400*%
%ADD31R,1.1000X1.4200*%
%ADD32R,1.4400X1.8200*%
%ADD33R,0.9000X0.6500*%
G04:AMPARAMS|DCode=34|XSize=1.21mm|YSize=0.59mm|CornerRadius=0.1475mm|HoleSize=0mm|Usage=FLASHONLY|Rotation=90.000|XOffset=0mm|YOffset=0mm|HoleType=Round|Shape=RoundedRectangle|*
%AMROUNDEDRECTD34*
21,1,1.2100,0.2950,0,0,90.0*
21,1,0.9150,0.5900,0,0,90.0*
1,1,0.2950,0.1475,0.4575*
1,1,0.2950,0.1475,-0.4575*
1,1,0.2950,-0.1475,-0.4575*
1,1,0.2950,-0.1475,0.4575*
%
%ADD34ROUNDEDRECTD34*%
%ADD35R,1.2000X1.4000*%
G04:AMPARAMS|DCode=37|XSize=0.84mm|YSize=0.2mm|CornerRadius=0.025mm|HoleSize=0mm|Usage=FLASHONLY|Rotation=270.000|XOffset=0mm|YOffset=0mm|HoleType=Round|Shape=RoundedRectangle|*
%AMROUNDEDRECTD37*
21,1,0.8400,0.1500,0,0,270.0*
21,1,0.7900,0.2000,0,0,270.0*
1,1,0.0500,-0.0750,-0.3950*
1,1,0.0500,-0.0750,0.3950*
1,1,0.0500,0.0750,0.3950*
1,1,0.0500,0.0750,-0.3950*
%
%ADD37ROUNDEDRECTD37*%
%ADD60C,2.0000*%
%ADD66C,1.5500*%
%ADD67R,1.5500X1.5500*%
%ADD70R,3.1000X2.2100*%
%ADD71R,3.1000X3.1000*%
%ADD73C,2.6000*%
%ADD74O,1.7000X0.9000*%
%ADD75O,2.0000X0.9000*%
%ADD76C,0.6000*%
%ADD77C,1.3080*%
%ADD78C,2.1000*%
D16*
X1118330Y540580D02*
D03*
Y548580D02*
D03*
Y492580D02*
D03*
Y484580D02*
D03*
X1118870Y370550D02*
D03*
Y378550D02*
D03*
Y426550D02*
D03*
Y434550D02*
D03*
D17*
X824620Y495300D02*
D03*
Y482600D02*
D03*
Y469900D02*
D03*
Y457200D02*
D03*
Y444500D02*
D03*
Y431800D02*
D03*
Y419100D02*
D03*
X769620D02*
D03*
Y431800D02*
D03*
Y444500D02*
D03*
Y482600D02*
D03*
Y495300D02*
D03*
Y508000D02*
D03*
Y469900D02*
D03*
X824620Y508000D02*
D03*
X769620Y457200D02*
D03*
D18*
X933440Y420370D02*
D03*
X976640D02*
D03*
D19*
X839250Y390920D02*
D03*
Y375920D02*
D03*
X875250Y360920D02*
D03*
Y390920D02*
D03*
X839250Y360920D02*
D03*
D20*
X875250Y375920D02*
D03*
D21*
X1020180Y532130D02*
D03*
X1012560Y400050D02*
D03*
X1020550Y514350D02*
D03*
X1012560Y381000D02*
D03*
X1028330Y361950D02*
D03*
X1013830D02*
D03*
X1027060Y381000D02*
D03*
Y400050D02*
D03*
X1035950Y496570D02*
D03*
X1021450D02*
D03*
X680190Y695960D02*
D03*
X694690D02*
D03*
X992770Y612140D02*
D03*
X978270D02*
D03*
X1034680Y532130D02*
D03*
X1035050Y514350D02*
D03*
X1148980Y707390D02*
D03*
X1134480D02*
D03*
X879370Y499110D02*
D03*
X864870D02*
D03*
X865240Y487680D02*
D03*
X879740D02*
D03*
X1143740Y591820D02*
D03*
X1158240D02*
D03*
D22*
X1102480Y657800D02*
D03*
Y661800D02*
D03*
Y697800D02*
D03*
Y693800D02*
D03*
Y689800D02*
D03*
Y685800D02*
D03*
Y681800D02*
D03*
Y677800D02*
D03*
Y673800D02*
D03*
Y669800D02*
D03*
Y665800D02*
D03*
Y653800D02*
D03*
Y649800D02*
D03*
Y645800D02*
D03*
X1033780D02*
D03*
Y649800D02*
D03*
Y653800D02*
D03*
Y657800D02*
D03*
Y661800D02*
D03*
Y665800D02*
D03*
Y669800D02*
D03*
Y673800D02*
D03*
Y677800D02*
D03*
Y681800D02*
D03*
Y685800D02*
D03*
Y689800D02*
D03*
Y693800D02*
D03*
Y697800D02*
D03*
D23*
X1118330Y524080D02*
D03*
Y509080D02*
D03*
X1118870Y410050D02*
D03*
Y395050D02*
D03*
X1118330Y534080D02*
D03*
Y529080D02*
D03*
Y519080D02*
D03*
Y499080D02*
D03*
Y504080D02*
D03*
Y514080D02*
D03*
X1118870Y420050D02*
D03*
Y400050D02*
D03*
Y390050D02*
D03*
Y385050D02*
D03*
Y405050D02*
D03*
Y415050D02*
D03*
D24*
X868680Y557040D02*
D03*
Y591040D02*
D03*
X956310Y710420D02*
D03*
Y676420D02*
D03*
X866140Y614190D02*
D03*
Y648190D02*
D03*
D25*
X726310Y506730D02*
D03*
X741810D02*
D03*
X866010Y529590D02*
D03*
X1140330Y646430D02*
D03*
X1155830D02*
D03*
X1139060Y679450D02*
D03*
X1154560D02*
D03*
X1160380Y607060D02*
D03*
X1144880D02*
D03*
X1133980Y628650D02*
D03*
X1149480D02*
D03*
X881510Y529590D02*
D03*
D26*
X887730Y438280D02*
D03*
Y422780D02*
D03*
X811530Y398910D02*
D03*
Y383410D02*
D03*
X1029970Y613540D02*
D03*
Y598040D02*
D03*
X1057910Y603250D02*
D03*
Y618750D02*
D03*
X1094740Y605920D02*
D03*
Y590420D02*
D03*
X1059180Y745360D02*
D03*
Y760860D02*
D03*
X1088390Y757050D02*
D03*
Y741550D02*
D03*
D27*
X1050300Y429260D02*
D03*
X1007100D02*
D03*
X744220Y668030D02*
D03*
Y624830D02*
D03*
D28*
X707150Y748030D02*
D03*
X677150D02*
D03*
X1128000Y728980D02*
D03*
X1158000D02*
D03*
D29*
X709930Y675640D02*
D03*
X697230D02*
D03*
X684530D02*
D03*
X671830D02*
D03*
X709930Y622540D02*
D03*
X697230D02*
D03*
X684530D02*
D03*
X671830D02*
D03*
D30*
X745490Y582320D02*
D03*
Y555600D02*
D03*
X820420Y639420D02*
D03*
Y666140D02*
D03*
D31*
X717510Y579120D02*
D03*
X699810D02*
D03*
X833080Y571500D02*
D03*
X815380D02*
D03*
D32*
X784200Y707390D02*
D03*
X846430Y675640D02*
D03*
X873150D02*
D03*
X654660Y596900D02*
D03*
X681380D02*
D03*
X810920Y707390D02*
D03*
D33*
X797190Y664210D02*
D03*
X782690D02*
D03*
Y683260D02*
D03*
X797190D02*
D03*
X1129770Y606690D02*
D03*
Y592190D02*
D03*
D34*
X779780Y607060D02*
D03*
X798780Y632160D02*
D03*
X779780D02*
D03*
X798780Y607060D02*
D03*
X789280D02*
D03*
D35*
X977520Y657430D02*
D03*
Y635430D02*
D03*
X993520D02*
D03*
Y657430D02*
D03*
D37*
X1094130Y637450D02*
D03*
X1090130D02*
D03*
X1086130D02*
D03*
X1082130D02*
D03*
X1078130D02*
D03*
X1074130D02*
D03*
X1070130D02*
D03*
X1066130D02*
D03*
X1062130D02*
D03*
X1058130D02*
D03*
X1054130D02*
D03*
X1050130D02*
D03*
X1046130D02*
D03*
X1042130D02*
D03*
Y706150D02*
D03*
X1046130D02*
D03*
X1050130D02*
D03*
X1054130D02*
D03*
X1058130D02*
D03*
X1062130D02*
D03*
X1066130D02*
D03*
X1070130D02*
D03*
X1074130D02*
D03*
X1078130D02*
D03*
X1082130D02*
D03*
X1086130D02*
D03*
X1090130D02*
D03*
X1094130D02*
D03*
D60*
X905510Y381000D02*
D03*
Y406400D02*
D03*
Y431800D02*
D03*
Y457200D02*
D03*
Y482600D02*
D03*
Y508000D02*
D03*
X727710Y406400D02*
D03*
Y431800D02*
D03*
Y457200D02*
D03*
Y482600D02*
D03*
D66*
X925830Y678580D02*
D03*
D67*
Y703580D02*
D03*
D70*
X690880Y649090D02*
D03*
D71*
X1068130Y671800D02*
D03*
D73*
X628357Y754405D02*
D03*
X624547Y326415D02*
D03*
X1170940Y331470D02*
D03*
X1159050Y755380D02*
D03*
D74*
X1165830Y559830D02*
D03*
Y473330D02*
D03*
X1166370Y359300D02*
D03*
Y445800D02*
D03*
D75*
X1124130Y559830D02*
D03*
Y473330D02*
D03*
X1124670Y359300D02*
D03*
Y445800D02*
D03*
D76*
X1129030Y545480D02*
D03*
Y487680D02*
D03*
X1129570Y373650D02*
D03*
Y431450D02*
D03*
D77*
X689610Y423230D02*
D03*
Y463230D02*
D03*
Y443230D02*
D03*
D78*
Y484730D02*
D03*
Y401730D02*
D03*
M02*
